#!OML:ASF F:\VICON\USERDATA\INSTALL\rory3\rory3.ASF
:FULLY-SPECIFIED
:DEGREES
257
root -0.336134 17.3648 17.0546 1.99301 -2.35381 -4.82866
lowerback 4.36722 1.48784 5.1146
upperback 0.760594 2.27482 3.17828
thorax -1.59633 1.11362 0.278526
lowerneck -13.3471 -2.68601 -9.79457
upperneck 24.98 -2.54868 4.4377
head 10.3861 -1.57703 2.91468
rclavicle 6.26172e-015 -3.02153e-014
rhumerus -21.9169 1.25337 -78.613
rradius 37.3679
rwrist 3.48871
rhand -12.4551 17.3108
rfingers 7.12502
rthumb 13.6184 -12.2237
lclavicle 6.26172e-015 -3.02153e-014
lhumerus -41.9257 8.38285 87.8503
lradius 26.4167
lwrist -13.3169
lhand -11.9462 27.9885
lfingers 7.12502
lthumb 14.1088 57.4895
rfemur 4.8053 6.77943 31.1773
rtibia 26.7262
rfoot -21.4352 -10.913
rtoes -11.6652
lfemur -21.7237 -2.92248 -12.4612
ltibia 7.63333e-014
lfoot 3.77415 8.88728
ltoes -13.9581
258
root -0.325338 17.3454 17.2681 1.97246 -2.57656 -5.02404
lowerback 4.08877 1.62385 5.32419
upperback 0.885911 2.43603 3.20682
thorax -1.29839 1.2003 0.19468
lowerneck -13.4291 -2.71344 -9.78495
upperneck 24.9885 -2.58352 4.44919
head 10.4079 -1.58986 2.9125
rclavicle 3.91606e-014 2.70347e-014
rhumerus -21.4152 0.82436 -78.3984
rradius 37.3675
rwrist 2.80504
rhand -12.6951 17.4045
rfingers 7.12502
rthumb 13.3871 -12.1454
lclavicle 3.91606e-014 2.70347e-014
lhumerus -42.1268 8.69537 87.7216
lradius 26.4118
lwrist -13.0327
lhand -10.7303 29.5446
lfingers 7.12502
lthumb 15.2803 58.9602
rfemur 5.68667 6.73992 31.3125
rtibia 26.6345
rfoot -21.4199 -10.6919
rtoes -13.1006
lfemur -22.4041 -2.6262 -12.2039
ltibia 8.90555e-014
lfoot 2.06578 8.36691
ltoes -12.6808
259
root -0.309971 17.3224 17.4751 2.06151 -2.9042 -5.12395
lowerback 4.01465 1.77654 5.49012
upperback 0.789218 2.64484 3.15446
thorax -1.33931 1.30158 0.0399961
lowerneck -13.4778 -2.72788 -9.74566
upperneck 25.1598 -2.62656 4.50702
head 10.4832 -1.60187 2.92394
rclavicle -1.54058e-015 -3.33958e-014
rhumerus -21.2421 0.336626 -78.2805
rradius 37.1296
rwrist 3.02881
rhand -13.4837 18.5002
rfingers 7.12502
rthumb 12.6269 -11.0981
lclavicle -1.54058e-015 -3.33958e-014
lhumerus -42.601 8.94253 87.451
lradius 26.2353
lwrist -13.2742
lhand -10.6827 29.4542
lfingers 7.12502
lthumb 15.3261 58.8662
rfemur 6.3494 6.85036 31.2836
rtibia 26.5923
rfoot -21.4056 -10.0387
rtoes -12.6781
lfemur -22.9605 -2.23877 -12.0972
ltibia 2.22639e-014
lfoot 0.358035 8.1008
ltoes -12.3752
260
root -0.292305 17.2974 17.6777 2.12277 -3.24962 -5.0461
lowerback 4.07203 1.91267 5.44351
upperback 0.697908 2.83253 3.06852
thorax -1.45629 1.39154 -0.0352819
lowerneck -13.7875 -2.74252 -9.59557
upperneck 25.4359 -2.64153 4.44963
head 10.643 -1.60308 2.87924
rclavicle 2.88238e-014 -3.02153e-014
rhumerus -21.1425 0.0541399 -78.2124
rradius 37.2033
rwrist 2.83368
rhand -13.8328 18.5593
rfingers 7.12502
rthumb 12.2903 -11.0595
lclavicle 2.88238e-014 -3.02153e-014
lhumerus -42.8695 9.2548 87.1504
lradius 25.5915
lwrist -13.9568
lhand -11.3584 28.3099
lfingers 7.12502
lthumb 14.6752 57.7706
rfemur 6.95379 6.95444 31.0581
rtibia 26.6967
rfoot -21.2231 -9.44478
rtoes -12.7886
lfemur -23.3159 -1.88458 -12.2607
ltibia 6.99722e-014
lfoot -1.09156 7.96722
ltoes -13.4605
261
root -0.276943 17.2729 17.8716 2.09856 -3.40451 -5.13208
lowerback 4.2342 1.95679 5.50169
upperback 0.636979 2.91067 3.08518
thorax -1.60495 1.42612 -0.0617829
lowerneck -13.8795 -2.73481 -9.56449
upperneck 25.4852 -2.62823 4.44366
head 10.6774 -1.59476 2.87408
rclavicle 1.39646e-014 1.98785e-014
rhumerus -20.9501 -0.351951 -78.0922
rradius 37.2684
rwrist 2.71935
rhand -14.2371 18.6147
rfingers 7.12502
rthumb 11.9004 -11.0271
lclavicle 1.39646e-014 1.98785e-014
lhumerus -43.0316 9.91014 86.7212
lradius 24.9691
lwrist -14.8078
lhand -10.9455 28.1955
lfingers 7.12502
lthumb 15.073 57.6267
rfemur 7.61576 7.05385 31.1017
rtibia 26.9474
rfoot -21.1105 -9.03132
rtoes -13.0607
lfemur -23.4472 -1.71064 -12.2223
ltibia 3.18055e-014
lfoot -1.71406 7.65431
ltoes -14.5918
262
root -0.264403 17.2564 18.0626 1.99344 -3.41536 -5.0467
lowerback 4.52643 1.9501 5.41825
upperback 0.559594 2.92499 3.03247
thorax -1.84942 1.42736 -0.0838392
lowerneck -13.8325 -2.73521 -9.49435
upperneck 25.4117 -2.63888 4.40017
head 10.6401 -1.59725 2.84382
rclavicle -5.2181e-015 -2.3059e-014
rhumerus -20.7612 -1.00869 -77.9626
rradius 37.2354
rwrist 2.87701
rhand -13.9672 18.7475
rfingers 7.12502
rthumb 12.1608 -10.879
lclavicle -5.2181e-015 -2.3059e-014
lhumerus -43.1914 10.7129 86.1588
lradius 24.2712
lwrist -15.5913
lhand -10.4741 28.4667
lfingers 7.12502
lthumb 15.527 57.8633
rfemur 8.20355 7.21431 31.0497
rtibia 27.309
rfoot -20.9212 -8.77578
rtoes -13.7775
lfemur -23.3431 -1.69389 -12.3484
ltibia -3.18055e-015
lfoot -1.54241 7.15348
ltoes -12.6411
263
root -0.246979 17.239 18.2686 1.88514 -3.40654 -4.98098
lowerback 4.63063 1.96842 5.36966
upperback 0.554278 2.9552 3.01304
thorax -1.9135 1.44126 -0.0828483
lowerneck -14.0606 -2.76203 -9.48329
upperneck 25.5806 -2.64691 4.3576
head 10.7477 -1.60559 2.82726
rclavicle -2.57426e-014 -1.11319e-014
rhumerus -20.5814 -1.69964 -77.7848
rradius 37.3232
rwrist 2.8977
rhand -13.6301 17.7913
rfingers 7.12502
rthumb 12.4858 -11.8157
lclavicle -2.57426e-014 -1.11319e-014
lhumerus -43.3987 11.1861 85.8617
lradius 23.8224
lwrist -15.9519
lhand -10.7782 28.0702
lfingers 7.12502
lthumb 15.2341 57.4893
rfemur 8.78002 7.04959 30.8712
rtibia 27.7286
rfoot -20.6612 -8.52626
rtoes -15.9669
lfemur -23.0576 -1.70501 -12.4737
ltibia 6.36111e-014
lfoot -0.749691 6.69095
ltoes -7.24779
264
root -0.223457 17.2258 18.4794 1.87917 -3.40892 -4.7088
lowerback 4.4677 2.02702 5.1862
upperback 0.598778 3.00694 2.90982
thorax -1.77792 1.47166 -0.082682
lowerneck -14.3989 -2.81498 -9.49044
upperneck 25.7755 -2.70131 4.40653
head 10.892 -1.62528 2.84089
rclavicle 2.95195e-014 1.51076e-014
rhumerus -20.3585 -2.28617 -77.6283
rradius 37.4417
rwrist 2.65374
rhand -14.0167 17.3197
rfingers 7.12502
rthumb 12.113 -12.3097
lclavicle 2.95195e-014 1.51076e-014
lhumerus -43.5084 11.5501 85.6296
lradius 23.5063
lwrist -16.2694
lhand -11.0649 28.0575
lfingers 7.12502
lthumb 14.958 57.4974
rfemur 9.17675 6.8235 30.3489
rtibia 28.262
rfoot -20.3184 -7.86791
rtoes -16.8767
lfemur -22.7013 -1.77346 -12.9716
ltibia -3.81667e-014
lfoot 0.785343 6.32587
ltoes -6.48409
265
root -0.208435 17.2109 18.6917 1.73645 -3.48416 -4.43081
lowerback 4.40944 2.10078 4.91281
upperback 0.680319 3.08184 2.8266
thorax -1.66798 1.51388 -0.0164431
lowerneck -14.3329 -2.89067 -9.53285
upperneck 25.6974 -2.80884 4.42729
head 10.86 -1.67508 2.83975
rclavicle -1.94312e-014 1.59028e-015
rhumerus -20.1795 -2.9799 -77.4717
rradius 37.5776
rwrist 2.39501
rhand -14.3167 18.3867
rfingers 7.12502
rthumb 11.8237 -11.2595
lclavicle -1.94312e-014 1.59028e-015
lhumerus -43.5918 12.1002 85.2625
lradius 23.1401
lwrist -16.6953
lhand -10.7701 28.4876
lfingers 7.12502
lthumb 15.2419 57.9061
rfemur 9.60301 6.93562 29.9965
rtibia 28.8972
rfoot -19.8503 -7.26702
rtoes -16.0815
lfemur -22.0063 -1.78879 -13.4955
ltibia -2.54444e-014
lfoot 2.21841 6.15334
ltoes -7.42475
266
root -0.190675 17.1869 18.9186 1.412 -3.63883 -4.32495
lowerback 4.3908 2.13864 4.7948
upperback 0.797525 3.11868 2.80217
thorax -1.54026 1.53666 0.0255776
lowerneck -14.1191 -2.90666 -9.55845
upperneck 25.5503 -2.87108 4.52134
head 10.7694 -1.69456 2.86845
rclavicle 4.22417e-015 1.98785e-014
rhumerus -20.2056 -3.49695 -77.3948
rradius 37.813
rwrist 2.21748
rhand -14.5701 18.9205
rfingers 7.12502
rthumb 11.5793 -10.7396
lclavicle 4.22417e-015 1.98785e-014
lhumerus -43.7388 12.5335 84.9293
lradius 22.6547
lwrist -16.8991
lhand -11.0262 28.3231
lfingers 7.12502
lthumb 14.9953 57.7601
rfemur 10.2452 7.00119 29.8202
rtibia 29.6518
rfoot -19.274 -6.6399
rtoes -16.1093
lfemur -20.9448 -1.73192 -13.8494
ltibia -9.54166e-015
lfoot 2.98629 5.81692
ltoes -8.48273
267
root -0.168234 17.1603 19.1535 1.08965 -3.85774 -4.3268
lowerback 4.37 2.21593 4.85096
upperback 0.949303 3.21443 2.81068
thorax -1.36629 1.58909 0.00330366
lowerneck -14.0836 -2.91554 -9.59393
upperneck 25.4137 -2.88947 4.57173
head 10.7145 -1.69842 2.88819
rclavicle 2.03754e-014 -1.74931e-014
rhumerus -20.3334 -3.92603 -77.2417
rradius 38.0908
rwrist 2.09678
rhand -15.0873 18.901
rfingers 7.12502
rthumb 11.0806 -10.7865
lclavicle 2.03754e-014 -1.74931e-014
lhumerus -43.6843 12.9141 84.6847
lradius 21.9806
lwrist -17.118
lhand -11.5481 27.577
lfingers 7.12502
lthumb 14.4925 57.0508
rfemur 10.8894 6.96945 29.6822
rtibia 30.51
rfoot -18.469 -5.81055
rtoes -15.8574
lfemur -22.6308 -1.64251 -14.1293
ltibia 5.31973
lfoot 1.13887 5.38223
ltoes -10.0566
268
root -0.144936 17.1502 19.3825 0.8633 -3.99819 -4.41274
lowerback 4.38032 2.26782 4.99748
upperback 1.06207 3.28509 2.85445
thorax -1.24763 1.62734 -0.0336408
lowerneck -14.3159 -2.93983 -9.69538
upperneck 25.4432 -2.88307 4.60713
head 10.7733 -1.69908 2.91855
rclavicle 1.25234e-014 7.95139e-016
rhumerus -20.4269 -4.21012 -77.0939
rradius 38.2895
rwrist 1.81437
rhand -15.277 18.4523
rfingers 7.12502
rthumb 10.8975 -11.2449
lclavicle 1.25234e-014 7.95139e-016
lhumerus -43.6808 13.5511 84.2821
lradius 21.499
lwrist -17.7694
lhand -11.5568 27.2231
lfingers 7.12502
lthumb 14.484 56.6976
rfemur 11.2786 6.81482 29.6119
rtibia 31.4107
rfoot -17.2097 -5.00003
rtoes -15.7926
lfemur -23.7003 -1.59322 -14.2616
ltibia 9.04937
lfoot 0.704396 4.5364
ltoes -10.0017
